<svg width="1154" height="337" viewBox="0 0 1154 337" fill="none" xmlns="http://www.w3.org/2000/svg">
<path d="M144 0L0 84.5V259L127 335V276.5L43 227.5V111.5L141.5 54L225.5 103.5L272.5 77L144 0Z" fill="#2D831D"/>
<path d="M184 164.5L149 185.5V336.5L275.5 262V222.5L184 275.5V164.5Z" fill="#2D831D"/>
<path d="M357.282 81.746C373.818 81.746 390.99 89.06 402.12 100.508L385.743 119.906C378.429 111.002 367.617 105.437 357.759 105.437C340.11 105.437 326.754 119.429 326.754 137.714C326.754 156.317 340.11 170.468 357.759 170.468C367.14 170.468 377.952 165.38 385.743 157.43L402.279 174.92C390.354 187.163 372.705 195.272 356.328 195.272C322.779 195.272 297.816 170.627 297.816 138.032C297.816 105.914 323.415 81.746 357.282 81.746ZM461.374 81.746C495.877 81.746 521.635 105.914 521.635 138.191C521.635 170.627 495.877 195.272 461.374 195.272C427.03 195.272 401.272 170.786 401.272 138.191C401.272 105.755 427.03 81.746 461.374 81.746ZM461.692 105.437C444.52 105.437 430.21 119.588 430.21 138.35C430.21 157.112 444.679 171.581 461.692 171.581C478.864 171.581 492.538 157.112 492.538 138.35C492.538 119.588 478.864 105.437 461.692 105.437ZM531.761 82.7H579.62C614.6 82.7 638.768 105.278 638.768 138.35C638.768 171.263 614.282 194 578.507 194H531.761V82.7ZM560.063 105.278V171.422H580.256C597.587 171.422 609.989 158.066 609.989 138.509C609.989 118.793 596.951 105.278 578.984 105.278H560.063ZM736.013 104.96H677.183V127.061H730.289V149.321H677.183V171.74H737.762V194H648.881V82.7H736.013V104.96ZM779.551 170.309H826.774V194H751.249V82.7H779.551V170.309ZM909.852 173.489H861.198L853.089 194H823.992L872.01 82.7H901.107L948.012 194H917.802L909.852 173.489ZM901.584 152.024L885.684 110.843L869.466 152.024H901.584ZM953.502 82.7H1006.13C1031.09 82.7 1046.99 93.512 1046.99 110.525C1046.99 122.291 1039.68 131.672 1027.91 135.011C1041.91 137.714 1050.81 148.685 1050.81 163.154C1050.81 182.075 1034.27 194 1008.04 194H953.502V82.7ZM981.645 104.324V127.22H1004.54C1012.81 127.22 1018.06 122.768 1018.06 115.613C1018.06 108.458 1012.81 104.324 1004.54 104.324H981.645ZM981.645 147.572V172.217H1004.54C1015.04 172.217 1021.55 167.606 1021.55 159.656C1021.55 152.183 1015.04 147.572 1004.54 147.572H981.645ZM1105.16 81.428C1121.22 81.428 1137.6 86.357 1149.05 93.83L1138.39 115.931C1126.63 109.094 1111.84 104.324 1102.78 104.324C1095.46 104.324 1090.54 107.027 1090.54 112.433C1090.54 131.672 1149.37 120.701 1149.37 160.928C1149.37 183.188 1129.65 194.954 1104.85 194.954C1086.24 194.954 1067.16 187.958 1053.97 177.146L1064.94 155.363C1076.38 165.38 1093.56 172.058 1105.16 172.058C1114.07 172.058 1119.63 168.719 1119.63 162.359C1119.63 142.643 1060.8 154.409 1060.8 114.977C1060.8 94.466 1078.45 81.428 1105.16 81.428Z" fill="#2D831D"/>
<path d="M313.773 220.7H329.551C337.097 220.7 341.801 223.983 341.801 229.275C341.801 232.999 339.547 235.89 335.872 236.821C340.282 237.654 343.026 240.986 343.026 245.494C343.026 251.374 338.077 255 330.09 255H313.773V220.7ZM321.515 227.021V234.518H329.159C332.05 234.518 333.863 233.097 333.863 230.696C333.863 228.344 332.05 227.021 329.159 227.021H321.515ZM321.515 240.496V248.679H329.159C332.834 248.679 335.039 247.16 335.039 244.514C335.039 242.015 332.834 240.496 329.159 240.496H321.515ZM377.665 220.7V240.643C377.665 249.708 371.736 255.343 362.279 255.343C352.773 255.343 346.697 249.708 346.697 240.643V220.7H354.439V240.643C354.439 245.592 357.673 248.581 362.279 248.581C366.885 248.581 369.923 245.592 369.923 240.643V220.7H377.665ZM390.981 255H383.239V220.7H390.981V255ZM405.019 248.238H419.719V255H397.277V220.7H405.019V248.238ZM422.99 220.7H437.543C448.176 220.7 455.575 227.707 455.575 237.85C455.575 247.944 448.078 255 437.249 255H422.99V220.7ZM430.732 227.217V248.483H437.739C443.472 248.483 447.686 244.171 447.686 237.899C447.686 231.578 443.276 227.217 437.396 227.217H430.732ZM482.366 220.357C487.168 220.357 491.97 221.827 495.4 224.081L492.411 230.5C488.785 228.344 484.473 226.972 481.729 226.972C479.132 226.972 477.368 227.903 477.368 229.765C477.368 236.086 495.645 232.558 495.596 244.906C495.596 251.619 489.765 255.245 482.17 255.245C476.535 255.245 470.9 253.089 467.029 249.806L470.116 243.485C473.644 246.621 478.642 248.63 482.268 248.63C485.453 248.63 487.364 247.454 487.364 245.347C487.364 238.879 469.087 242.652 469.087 230.5C469.087 224.277 474.428 220.357 482.366 220.357ZM515.673 220.455C526.159 220.455 534.097 227.903 534.097 237.85C534.097 247.748 526.159 255.343 515.673 255.343C505.187 255.343 497.249 247.797 497.249 237.85C497.249 227.854 505.187 220.455 515.673 220.455ZM515.771 227.217C509.989 227.217 505.187 231.823 505.187 237.85C505.187 243.877 510.038 248.581 515.771 248.581C521.504 248.581 526.159 243.877 526.159 237.85C526.159 231.823 521.504 227.217 515.771 227.217ZM552.819 220.455C557.768 220.455 562.962 222.66 566.343 226.139L561.835 231.627C559.483 228.932 556.102 227.168 552.917 227.168C547.037 227.168 542.48 231.725 542.48 237.703C542.48 243.681 547.037 248.287 552.917 248.287C556.004 248.287 559.385 246.719 561.835 244.269L566.392 249.218C562.766 252.942 557.523 255.343 552.525 255.343C542.284 255.343 534.542 247.748 534.542 237.801C534.542 227.903 542.431 220.455 552.819 220.455ZM577.433 255H569.691V220.7H577.433V255ZM609.846 227.119H591.471V234.567H608.033V240.986H591.471V248.581H610.385V255H583.729V220.7H609.846V227.119ZM640.42 227.266H629.934V255H622.192V227.266H611.755V220.7H640.42V227.266ZM659.755 243.926V255H652.013V244.122L639.322 220.7H647.113L655.884 236.086L664.459 220.7H672.25L659.755 243.926Z" fill="black"/>
<path d="M722.416 255H718.398L709.137 226.09L699.778 255H695.76L684.294 220.7H688.508L697.916 250.443L707.226 220.749L711.146 220.7L720.554 250.443L729.864 220.7H733.931L722.416 255ZM741.457 255H737.537V220.7H741.457V255ZM772.033 224.473H760.812V255H756.892V224.473H745.72V220.7H772.033V224.473ZM804.746 255H800.826V239.908H780.148V255H776.228V220.7H780.148V236.184H800.826V220.7H804.746V255ZM847.296 224.473H836.075V255H832.155V224.473H820.983V220.7H847.296V224.473ZM874.766 224.473H855.411V235.743H872.708V239.516H855.411V251.276H875.403V255H851.491V220.7H874.766V224.473ZM896.589 220.602C901.293 220.602 905.85 222.513 909.133 225.6L906.781 228.589C904.135 225.894 900.411 224.277 896.638 224.277C888.896 224.277 882.673 230.255 882.673 237.801C882.673 245.298 888.896 251.325 896.638 251.325C900.411 251.325 904.086 249.757 906.781 247.209L909.182 249.904C905.801 253.089 901.195 255.196 896.442 255.196C886.544 255.196 878.704 247.503 878.704 237.801C878.704 228.197 886.642 220.602 896.589 220.602ZM943.296 255H939.376V239.908H918.698V255H914.778V220.7H918.698V236.184H939.376V220.7H943.296V255ZM980.729 255H976.711L956.131 227.462V255H952.211V220.7H956.278L976.858 248.287V220.7H980.729V255ZM1004.44 220.602C1014.44 220.602 1022.38 228.197 1022.38 237.85C1022.38 247.503 1014.44 255.196 1004.44 255.196C994.396 255.196 986.458 247.503 986.458 237.85C986.458 228.148 994.396 220.602 1004.44 220.602ZM1004.44 224.326C996.797 224.326 990.427 230.304 990.427 237.85C990.427 245.396 996.797 251.423 1004.44 251.423C1012.09 251.423 1018.36 245.396 1018.36 237.85C1018.36 230.304 1012.09 224.326 1004.44 224.326ZM1032 251.276H1047.05V255H1028.08V220.7H1032V251.276ZM1066.68 220.602C1076.67 220.602 1084.61 228.197 1084.61 237.85C1084.61 247.503 1076.67 255.196 1066.68 255.196C1056.63 255.196 1048.69 247.503 1048.69 237.85C1048.69 228.148 1056.63 220.602 1066.68 220.602ZM1066.68 224.326C1059.03 224.326 1052.66 230.304 1052.66 237.85C1052.66 245.396 1059.03 251.423 1066.68 251.423C1074.32 251.423 1080.59 245.396 1080.59 237.85C1080.59 230.304 1074.32 224.326 1066.68 224.326ZM1113.41 238.242H1116.89V250.688C1113.51 253.383 1108.76 255.196 1104.15 255.196C1094.21 255.196 1086.27 247.503 1086.27 237.85C1086.27 228.197 1094.26 220.602 1104.35 220.602C1109.1 220.602 1113.71 222.415 1116.99 225.306L1114.74 228.246C1111.94 225.747 1108.17 224.277 1104.35 224.277C1096.51 224.277 1090.24 230.304 1090.24 237.85C1090.24 245.445 1096.56 251.472 1104.4 251.472C1107.49 251.472 1110.77 250.394 1113.41 248.581V238.242ZM1137.08 243.24V255H1133.21V243.387L1119.93 220.7H1124L1135.12 238.585L1146.09 220.7H1150.11L1137.08 243.24Z" fill="black"/>
</svg>
